ISO-10303-21;
HEADER;
/* Generated by software containing ST-Developer
 * from STEP Tools, Inc. (www.steptools.com) 
 */
/* OPTION: using custom schema-name function */

FILE_DESCRIPTION(
/* description */ (''),
/* implementation_level */ '2;1');

FILE_NAME(
/* name */ 'dente',
/* time_stamp */ '2026-06-12T19:14:21+08:00',
/* author */ (''),
/* organization */ (''),
/* preprocessor_version */ 'ST-DEVELOPER v19.2',
/* originating_system */ 'Rhino 8.4',
/* authorisation */ '');

FILE_SCHEMA (('AUTOMOTIVE_DESIGN'));
ENDSEC;

DATA;
#10=SHAPE_REPRESENTATION_RELATIONSHIP('','',#113,#13);
#11=PRESENTATION_LAYER_ASSIGNMENT('IGES level 0','',(#12));
#12=MANIFOLD_SOLID_BREP('brep_1',#14);
#13=ADVANCED_BREP_SHAPE_REPRESENTATION('brep_rep_0',(#12,#115),#112);
#14=CLOSED_SHELL('',(#15,#16,#17,#18,#19,#20));
#15=ADVANCED_FACE('',(#21),#89,.T.);
#16=ADVANCED_FACE('',(#22),#90,.T.);
#17=ADVANCED_FACE('',(#23),#91,.T.);
#18=ADVANCED_FACE('',(#24),#92,.T.);
#19=ADVANCED_FACE('',(#25),#93,.T.);
#20=ADVANCED_FACE('',(#26),#94,.T.);
#21=FACE_OUTER_BOUND('',#27,.T.);
#22=FACE_OUTER_BOUND('',#28,.T.);
#23=FACE_OUTER_BOUND('',#29,.T.);
#24=FACE_OUTER_BOUND('',#30,.T.);
#25=FACE_OUTER_BOUND('',#31,.T.);
#26=FACE_OUTER_BOUND('',#32,.T.);
#27=EDGE_LOOP('',(#33,#34,#35,#36));
#28=EDGE_LOOP('',(#37,#38,#39,#40));
#29=EDGE_LOOP('',(#41,#42,#43,#44));
#30=EDGE_LOOP('',(#45,#46,#47,#48));
#31=EDGE_LOOP('',(#49,#50,#51,#52));
#32=EDGE_LOOP('',(#53,#54,#55,#56));
#33=ORIENTED_EDGE('',*,*,#57,.T.);
#34=ORIENTED_EDGE('',*,*,#58,.T.);
#35=ORIENTED_EDGE('',*,*,#59,.T.);
#36=ORIENTED_EDGE('',*,*,#60,.T.);
#37=ORIENTED_EDGE('',*,*,#61,.T.);
#38=ORIENTED_EDGE('',*,*,#60,.F.);
#39=ORIENTED_EDGE('',*,*,#62,.T.);
#40=ORIENTED_EDGE('',*,*,#63,.T.);
#41=ORIENTED_EDGE('',*,*,#66,.F.);
#42=ORIENTED_EDGE('',*,*,#65,.F.);
#43=ORIENTED_EDGE('',*,*,#58,.F.);
#44=ORIENTED_EDGE('',*,*,#64,.F.);
#45=ORIENTED_EDGE('',*,*,#67,.T.);
#46=ORIENTED_EDGE('',*,*,#64,.T.);
#47=ORIENTED_EDGE('',*,*,#57,.F.);
#48=ORIENTED_EDGE('',*,*,#61,.F.);
#49=ORIENTED_EDGE('',*,*,#62,.F.);
#50=ORIENTED_EDGE('',*,*,#59,.F.);
#51=ORIENTED_EDGE('',*,*,#65,.T.);
#52=ORIENTED_EDGE('',*,*,#68,.F.);
#53=ORIENTED_EDGE('',*,*,#63,.F.);
#54=ORIENTED_EDGE('',*,*,#68,.T.);
#55=ORIENTED_EDGE('',*,*,#66,.T.);
#56=ORIENTED_EDGE('',*,*,#67,.F.);
#57=EDGE_CURVE('',#81,#82,#69,.T.);
#58=EDGE_CURVE('',#82,#83,#70,.T.);
#59=EDGE_CURVE('',#83,#84,#71,.T.);
#60=EDGE_CURVE('',#84,#81,#72,.T.);
#61=EDGE_CURVE('',#85,#81,#73,.T.);
#62=EDGE_CURVE('',#84,#86,#74,.T.);
#63=EDGE_CURVE('',#86,#85,#75,.T.);
#64=EDGE_CURVE('',#87,#82,#76,.T.);
#65=EDGE_CURVE('',#83,#88,#77,.T.);
#66=EDGE_CURVE('',#88,#87,#78,.T.);
#67=EDGE_CURVE('',#85,#87,#79,.T.);
#68=EDGE_CURVE('',#86,#88,#80,.T.);
#69=(
BOUNDED_CURVE()
B_SPLINE_CURVE(3,(#615,#616,#617,#618,#619,#620,#621,#622,#623),
 .UNSPECIFIED.,.F.,.F.)
B_SPLINE_CURVE_WITH_KNOTS((4,1,1,1,1,1,4),(0.,0.166667,0.333333,0.5,0.666667,
0.833333,1.),.UNSPECIFIED.)
CURVE()
GEOMETRIC_REPRESENTATION_ITEM()
RATIONAL_B_SPLINE_CURVE((1.,1.,1.,1.,1.,1.,1.,1.,1.))
REPRESENTATION_ITEM('')
);
#70=(
BOUNDED_CURVE()
B_SPLINE_CURVE(3,(#624,#625,#626,#627,#628,#629,#630,#631,#632),
 .UNSPECIFIED.,.F.,.F.)
B_SPLINE_CURVE_WITH_KNOTS((4,1,1,1,1,1,4),(0.,0.166667,0.333333,0.5,0.666667,
0.833333,1.),.UNSPECIFIED.)
CURVE()
GEOMETRIC_REPRESENTATION_ITEM()
RATIONAL_B_SPLINE_CURVE((1.,1.,1.,1.,1.,1.,1.,1.,1.))
REPRESENTATION_ITEM('')
);
#71=(
BOUNDED_CURVE()
B_SPLINE_CURVE(3,(#633,#634,#635,#636,#637,#638,#639,#640,#641),
 .UNSPECIFIED.,.F.,.F.)
B_SPLINE_CURVE_WITH_KNOTS((4,1,1,1,1,1,4),(-1.,-0.833333,-0.666667,-0.5,
-0.333333,-0.166667,0.),.UNSPECIFIED.)
CURVE()
GEOMETRIC_REPRESENTATION_ITEM()
RATIONAL_B_SPLINE_CURVE((1.,1.,1.,1.,1.,1.,1.,1.,1.))
REPRESENTATION_ITEM('')
);
#72=(
BOUNDED_CURVE()
B_SPLINE_CURVE(3,(#642,#643,#644,#645,#646,#647,#648,#649,#650),
 .UNSPECIFIED.,.F.,.F.)
B_SPLINE_CURVE_WITH_KNOTS((4,1,1,1,1,1,4),(-1.,-0.833333,-0.666667,-0.5,
-0.333333,-0.166667,0.),.UNSPECIFIED.)
CURVE()
GEOMETRIC_REPRESENTATION_ITEM()
RATIONAL_B_SPLINE_CURVE((1.,1.,1.,1.,1.,1.,1.,1.,1.))
REPRESENTATION_ITEM('')
);
#73=(
BOUNDED_CURVE()
B_SPLINE_CURVE(3,(#651,#652,#653,#654,#655,#656,#657,#658,#659),
 .UNSPECIFIED.,.F.,.F.)
B_SPLINE_CURVE_WITH_KNOTS((4,1,1,1,1,1,4),(0.,0.166667,0.333333,0.5,0.666667,
0.833333,1.),.UNSPECIFIED.)
CURVE()
GEOMETRIC_REPRESENTATION_ITEM()
RATIONAL_B_SPLINE_CURVE((1.,1.,1.,1.,1.,1.,1.,1.,1.))
REPRESENTATION_ITEM('')
);
#74=(
BOUNDED_CURVE()
B_SPLINE_CURVE(3,(#660,#661,#662,#663,#664,#665,#666,#667,#668),
 .UNSPECIFIED.,.F.,.F.)
B_SPLINE_CURVE_WITH_KNOTS((4,1,1,1,1,1,4),(-1.,-0.833333,-0.666667,-0.5,
-0.333333,-0.166667,0.),.UNSPECIFIED.)
CURVE()
GEOMETRIC_REPRESENTATION_ITEM()
RATIONAL_B_SPLINE_CURVE((1.,1.,1.,1.,1.,1.,1.,1.,1.))
REPRESENTATION_ITEM('')
);
#75=(
BOUNDED_CURVE()
B_SPLINE_CURVE(3,(#669,#670,#671,#672,#673,#674,#675,#676,#677),
 .UNSPECIFIED.,.F.,.F.)
B_SPLINE_CURVE_WITH_KNOTS((4,1,1,1,1,1,4),(-1.,-0.833333,-0.666667,-0.5,
-0.333333,-0.166667,0.),.UNSPECIFIED.)
CURVE()
GEOMETRIC_REPRESENTATION_ITEM()
RATIONAL_B_SPLINE_CURVE((1.,1.,1.,1.,1.,1.,1.,1.,1.))
REPRESENTATION_ITEM('')
);
#76=(
BOUNDED_CURVE()
B_SPLINE_CURVE(3,(#678,#679,#680,#681,#682,#683,#684,#685,#686),
 .UNSPECIFIED.,.F.,.F.)
B_SPLINE_CURVE_WITH_KNOTS((4,1,1,1,1,1,4),(0.,0.166667,0.333333,0.5,0.666667,
0.833333,1.),.UNSPECIFIED.)
CURVE()
GEOMETRIC_REPRESENTATION_ITEM()
RATIONAL_B_SPLINE_CURVE((1.,1.,1.,1.,1.,1.,1.,1.,1.))
REPRESENTATION_ITEM('')
);
#77=(
BOUNDED_CURVE()
B_SPLINE_CURVE(3,(#687,#688,#689,#690,#691,#692,#693,#694,#695),
 .UNSPECIFIED.,.F.,.F.)
B_SPLINE_CURVE_WITH_KNOTS((4,1,1,1,1,1,4),(-1.,-0.833333,-0.666667,-0.5,
-0.333333,-0.166667,0.),.UNSPECIFIED.)
CURVE()
GEOMETRIC_REPRESENTATION_ITEM()
RATIONAL_B_SPLINE_CURVE((1.,1.,1.,1.,1.,1.,1.,1.,1.))
REPRESENTATION_ITEM('')
);
#78=(
BOUNDED_CURVE()
B_SPLINE_CURVE(3,(#696,#697,#698,#699,#700,#701,#702,#703,#704),
 .UNSPECIFIED.,.F.,.F.)
B_SPLINE_CURVE_WITH_KNOTS((4,1,1,1,1,1,4),(-1.,-0.833333,-0.666667,-0.5,
-0.333333,-0.166667,0.),.UNSPECIFIED.)
CURVE()
GEOMETRIC_REPRESENTATION_ITEM()
RATIONAL_B_SPLINE_CURVE((1.,1.,1.,1.,1.,1.,1.,1.,1.))
REPRESENTATION_ITEM('')
);
#79=(
BOUNDED_CURVE()
B_SPLINE_CURVE(3,(#705,#706,#707,#708,#709,#710,#711,#712,#713),
 .UNSPECIFIED.,.F.,.F.)
B_SPLINE_CURVE_WITH_KNOTS((4,1,1,1,1,1,4),(0.,0.166667,0.333333,0.5,0.666667,
0.833333,1.),.UNSPECIFIED.)
CURVE()
GEOMETRIC_REPRESENTATION_ITEM()
RATIONAL_B_SPLINE_CURVE((1.,1.,1.,1.,1.,1.,1.,1.,1.))
REPRESENTATION_ITEM('')
);
#80=(
BOUNDED_CURVE()
B_SPLINE_CURVE(3,(#714,#715,#716,#717,#718,#719,#720,#721,#722),
 .UNSPECIFIED.,.F.,.F.)
B_SPLINE_CURVE_WITH_KNOTS((4,1,1,1,1,1,4),(0.,0.166667,0.333333,0.5,0.666667,
0.833333,1.),.UNSPECIFIED.)
CURVE()
GEOMETRIC_REPRESENTATION_ITEM()
RATIONAL_B_SPLINE_CURVE((1.,1.,1.,1.,1.,1.,1.,1.,1.))
REPRESENTATION_ITEM('')
);
#81=VERTEX_POINT('',#607);
#82=VERTEX_POINT('',#608);
#83=VERTEX_POINT('',#609);
#84=VERTEX_POINT('',#610);
#85=VERTEX_POINT('',#611);
#86=VERTEX_POINT('',#612);
#87=VERTEX_POINT('',#613);
#88=VERTEX_POINT('',#614);
#89=(
BOUNDED_SURFACE()
B_SPLINE_SURFACE(3,3,((#121,#122,#123,#124,#125,#126,#127,#128,#129),(#130,
#131,#132,#133,#134,#135,#136,#137,#138),(#139,#140,#141,#142,#143,#144,
#145,#146,#147),(#148,#149,#150,#151,#152,#153,#154,#155,#156),(#157,#158,
#159,#160,#161,#162,#163,#164,#165),(#166,#167,#168,#169,#170,#171,#172,
#173,#174),(#175,#176,#177,#178,#179,#180,#181,#182,#183),(#184,#185,#186,
#187,#188,#189,#190,#191,#192),(#193,#194,#195,#196,#197,#198,#199,#200,
#201)),.UNSPECIFIED.,.F.,.F.,.F.)
B_SPLINE_SURFACE_WITH_KNOTS((4,1,1,1,1,1,4),(4,1,1,1,1,1,4),(0.,0.166667,
0.333333,0.5,0.666667,0.833333,1.),(0.,0.166667,0.333333,0.5,0.666667,0.833333,
1.),.UNSPECIFIED.)
GEOMETRIC_REPRESENTATION_ITEM()
RATIONAL_B_SPLINE_SURFACE(((1.,1.,1.,1.,1.,1.,1.,1.,1.),(1.,1.,1.,1.,1.,
1.,1.,1.,1.),(1.,1.,1.,1.,1.,1.,1.,1.,1.),(1.,1.,1.,1.,1.,1.,1.,1.,1.),
(1.,1.,1.,1.,1.,1.,1.,1.,1.),(1.,1.,1.,1.,1.,1.,1.,1.,1.),(1.,1.,1.,1.,
1.,1.,1.,1.,1.),(1.,1.,1.,1.,1.,1.,1.,1.,1.),(1.,1.,1.,1.,1.,1.,1.,1.,1.)))
REPRESENTATION_ITEM('')
SURFACE()
);
#90=(
BOUNDED_SURFACE()
B_SPLINE_SURFACE(3,3,((#202,#203,#204,#205,#206,#207,#208,#209,#210),(#211,
#212,#213,#214,#215,#216,#217,#218,#219),(#220,#221,#222,#223,#224,#225,
#226,#227,#228),(#229,#230,#231,#232,#233,#234,#235,#236,#237),(#238,#239,
#240,#241,#242,#243,#244,#245,#246),(#247,#248,#249,#250,#251,#252,#253,
#254,#255),(#256,#257,#258,#259,#260,#261,#262,#263,#264),(#265,#266,#267,
#268,#269,#270,#271,#272,#273),(#274,#275,#276,#277,#278,#279,#280,#281,
#282)),.UNSPECIFIED.,.F.,.F.,.F.)
B_SPLINE_SURFACE_WITH_KNOTS((4,1,1,1,1,1,4),(4,1,1,1,1,1,4),(0.,0.166667,
0.333333,0.5,0.666667,0.833333,1.),(0.,0.166667,0.333333,0.5,0.666667,0.833333,
1.),.UNSPECIFIED.)
GEOMETRIC_REPRESENTATION_ITEM()
RATIONAL_B_SPLINE_SURFACE(((1.,1.,1.,1.,1.,1.,1.,1.,1.),(1.,1.,1.,1.,1.,
1.,1.,1.,1.),(1.,1.,1.,1.,1.,1.,1.,1.,1.),(1.,1.,1.,1.,1.,1.,1.,1.,1.),
(1.,1.,1.,1.,1.,1.,1.,1.,1.),(1.,1.,1.,1.,1.,1.,1.,1.,1.),(1.,1.,1.,1.,
1.,1.,1.,1.,1.),(1.,1.,1.,1.,1.,1.,1.,1.,1.),(1.,1.,1.,1.,1.,1.,1.,1.,1.)))
REPRESENTATION_ITEM('')
SURFACE()
);
#91=(
BOUNDED_SURFACE()
B_SPLINE_SURFACE(3,3,((#283,#284,#285,#286,#287,#288,#289,#290,#291),(#292,
#293,#294,#295,#296,#297,#298,#299,#300),(#301,#302,#303,#304,#305,#306,
#307,#308,#309),(#310,#311,#312,#313,#314,#315,#316,#317,#318),(#319,#320,
#321,#322,#323,#324,#325,#326,#327),(#328,#329,#330,#331,#332,#333,#334,
#335,#336),(#337,#338,#339,#340,#341,#342,#343,#344,#345),(#346,#347,#348,
#349,#350,#351,#352,#353,#354),(#355,#356,#357,#358,#359,#360,#361,#362,
#363)),.UNSPECIFIED.,.F.,.F.,.F.)
B_SPLINE_SURFACE_WITH_KNOTS((4,1,1,1,1,1,4),(4,1,1,1,1,1,4),(0.,0.166667,
0.333333,0.5,0.666667,0.833333,1.),(0.,0.166667,0.333333,0.5,0.666667,0.833333,
1.),.UNSPECIFIED.)
GEOMETRIC_REPRESENTATION_ITEM()
RATIONAL_B_SPLINE_SURFACE(((1.,1.,1.,1.,1.,1.,1.,1.,1.),(1.,1.,1.,1.,1.,
1.,1.,1.,1.),(1.,1.,1.,1.,1.,1.,1.,1.,1.),(1.,1.,1.,1.,1.,1.,1.,1.,1.),
(1.,1.,1.,1.,1.,1.,1.,1.,1.),(1.,1.,1.,1.,1.,1.,1.,1.,1.),(1.,1.,1.,1.,
1.,1.,1.,1.,1.),(1.,1.,1.,1.,1.,1.,1.,1.,1.),(1.,1.,1.,1.,1.,1.,1.,1.,1.)))
REPRESENTATION_ITEM('')
SURFACE()
);
#92=(
BOUNDED_SURFACE()
B_SPLINE_SURFACE(3,3,((#364,#365,#366,#367,#368,#369,#370,#371,#372),(#373,
#374,#375,#376,#377,#378,#379,#380,#381),(#382,#383,#384,#385,#386,#387,
#388,#389,#390),(#391,#392,#393,#394,#395,#396,#397,#398,#399),(#400,#401,
#402,#403,#404,#405,#406,#407,#408),(#409,#410,#411,#412,#413,#414,#415,
#416,#417),(#418,#419,#420,#421,#422,#423,#424,#425,#426),(#427,#428,#429,
#430,#431,#432,#433,#434,#435),(#436,#437,#438,#439,#440,#441,#442,#443,
#444)),.UNSPECIFIED.,.F.,.F.,.F.)
B_SPLINE_SURFACE_WITH_KNOTS((4,1,1,1,1,1,4),(4,1,1,1,1,1,4),(0.,0.166667,
0.333333,0.5,0.666667,0.833333,1.),(0.,0.166667,0.333333,0.5,0.666667,0.833333,
1.),.UNSPECIFIED.)
GEOMETRIC_REPRESENTATION_ITEM()
RATIONAL_B_SPLINE_SURFACE(((1.,1.,1.,1.,1.,1.,1.,1.,1.),(1.,1.,1.,1.,1.,
1.,1.,1.,1.),(1.,1.,1.,1.,1.,1.,1.,1.,1.),(1.,1.,1.,1.,1.,1.,1.,1.,1.),
(1.,1.,1.,1.,1.,1.,1.,1.,1.),(1.,1.,1.,1.,1.,1.,1.,1.,1.),(1.,1.,1.,1.,
1.,1.,1.,1.,1.),(1.,1.,1.,1.,1.,1.,1.,1.,1.),(1.,1.,1.,1.,1.,1.,1.,1.,1.)))
REPRESENTATION_ITEM('')
SURFACE()
);
#93=(
BOUNDED_SURFACE()
B_SPLINE_SURFACE(3,3,((#445,#446,#447,#448,#449,#450,#451,#452,#453),(#454,
#455,#456,#457,#458,#459,#460,#461,#462),(#463,#464,#465,#466,#467,#468,
#469,#470,#471),(#472,#473,#474,#475,#476,#477,#478,#479,#480),(#481,#482,
#483,#484,#485,#486,#487,#488,#489),(#490,#491,#492,#493,#494,#495,#496,
#497,#498),(#499,#500,#501,#502,#503,#504,#505,#506,#507),(#508,#509,#510,
#511,#512,#513,#514,#515,#516),(#517,#518,#519,#520,#521,#522,#523,#524,
#525)),.UNSPECIFIED.,.F.,.F.,.F.)
B_SPLINE_SURFACE_WITH_KNOTS((4,1,1,1,1,1,4),(4,1,1,1,1,1,4),(0.,0.166667,
0.333333,0.5,0.666667,0.833333,1.),(0.,0.166667,0.333333,0.5,0.666667,0.833333,
1.),.UNSPECIFIED.)
GEOMETRIC_REPRESENTATION_ITEM()
RATIONAL_B_SPLINE_SURFACE(((1.,1.,1.,1.,1.,1.,1.,1.,1.),(1.,1.,1.,1.,1.,
1.,1.,1.,1.),(1.,1.,1.,1.,1.,1.,1.,1.,1.),(1.,1.,1.,1.,1.,1.,1.,1.,1.),
(1.,1.,1.,1.,1.,1.,1.,1.,1.),(1.,1.,1.,1.,1.,1.,1.,1.,1.),(1.,1.,1.,1.,
1.,1.,1.,1.,1.),(1.,1.,1.,1.,1.,1.,1.,1.,1.),(1.,1.,1.,1.,1.,1.,1.,1.,1.)))
REPRESENTATION_ITEM('')
SURFACE()
);
#94=(
BOUNDED_SURFACE()
B_SPLINE_SURFACE(3,3,((#526,#527,#528,#529,#530,#531,#532,#533,#534),(#535,
#536,#537,#538,#539,#540,#541,#542,#543),(#544,#545,#546,#547,#548,#549,
#550,#551,#552),(#553,#554,#555,#556,#557,#558,#559,#560,#561),(#562,#563,
#564,#565,#566,#567,#568,#569,#570),(#571,#572,#573,#574,#575,#576,#577,
#578,#579),(#580,#581,#582,#583,#584,#585,#586,#587,#588),(#589,#590,#591,
#592,#593,#594,#595,#596,#597),(#598,#599,#600,#601,#602,#603,#604,#605,
#606)),.UNSPECIFIED.,.F.,.F.,.F.)
B_SPLINE_SURFACE_WITH_KNOTS((4,1,1,1,1,1,4),(4,1,1,1,1,1,4),(0.,0.166667,
0.333333,0.5,0.666667,0.833333,1.),(0.,0.166667,0.333333,0.5,0.666667,0.833333,
1.),.UNSPECIFIED.)
GEOMETRIC_REPRESENTATION_ITEM()
RATIONAL_B_SPLINE_SURFACE(((1.,1.,1.,1.,1.,1.,1.,1.,1.),(1.,1.,1.,1.,1.,
1.,1.,1.,1.),(1.,1.,1.,1.,1.,1.,1.,1.,1.),(1.,1.,1.,1.,1.,1.,1.,1.,1.),
(1.,1.,1.,1.,1.,1.,1.,1.,1.),(1.,1.,1.,1.,1.,1.,1.,1.,1.),(1.,1.,1.,1.,
1.,1.,1.,1.,1.),(1.,1.,1.,1.,1.,1.,1.,1.,1.),(1.,1.,1.,1.,1.,1.,1.,1.,1.)))
REPRESENTATION_ITEM('')
SURFACE()
);
#95=SHAPE_DEFINITION_REPRESENTATION(#96,#113);
#96=PRODUCT_DEFINITION_SHAPE($,$,#98);
#97=PRODUCT_DEFINITION_CONTEXT('3D Mechanical Parts',#102,'design');
#98=PRODUCT_DEFINITION('A','First version',#99,#97);
#99=PRODUCT_DEFINITION_FORMATION_WITH_SPECIFIED_SOURCE('A',
'First version',#104,.MADE.);
#100=PRODUCT_RELATED_PRODUCT_CATEGORY('tool','tool',(#104));
#101=APPLICATION_PROTOCOL_DEFINITION('Draft International Standard',
'automotive_design',1999,#102);
#102=APPLICATION_CONTEXT(
'data for automotive mechanical design processes');
#103=PRODUCT_CONTEXT('3D Mechanical Parts',#102,'mechanical');
#104=PRODUCT('Document','Document','',(#103));
#105=(
LENGTH_UNIT()
NAMED_UNIT(*)
SI_UNIT(.MILLI.,.METRE.)
);
#106=(
NAMED_UNIT(*)
PLANE_ANGLE_UNIT()
SI_UNIT($,.RADIAN.)
);
#107=DIMENSIONAL_EXPONENTS(0.,0.,0.,0.,0.,0.,0.);
#108=PLANE_ANGLE_MEASURE_WITH_UNIT(PLANE_ANGLE_MEASURE(0.01745329252),#106);
#109=(
CONVERSION_BASED_UNIT('DEGREES',#108)
NAMED_UNIT(#107)
PLANE_ANGLE_UNIT()
);
#110=(
NAMED_UNIT(*)
SI_UNIT($,.STERADIAN.)
SOLID_ANGLE_UNIT()
);
#111=UNCERTAINTY_MEASURE_WITH_UNIT(LENGTH_MEASURE(0.001),#105,
'DISTANCE_ACCURACY_VALUE',
'Maximum model space distance between geometric entities at asserted c
onnectivities');
#112=(
GEOMETRIC_REPRESENTATION_CONTEXT(3)
GLOBAL_UNCERTAINTY_ASSIGNED_CONTEXT((#111))
GLOBAL_UNIT_ASSIGNED_CONTEXT((#110,#109,#105))
REPRESENTATION_CONTEXT('ID1','3D')
);
#113=SHAPE_REPRESENTATION('Document',(#114,#115),#112);
#114=AXIS2_PLACEMENT_3D($,#120,#116,#117);
#115=AXIS2_PLACEMENT_3D($,#723,#118,#119);
#116=DIRECTION('',(0.,0.,1.));
#117=DIRECTION('',(1.,0.,0.));
#118=DIRECTION('',(0.,0.,1.));
#119=DIRECTION('',(1.,0.,0.));
#120=CARTESIAN_POINT('',(0.,0.,0.));
#121=CARTESIAN_POINT('',(-189.013,927.509,386.171));
#122=CARTESIAN_POINT('',(-283.693,836.153,337.99));
#123=CARTESIAN_POINT('',(-382.655,603.694,221.081));
#124=CARTESIAN_POINT('',(-358.408,358.814,78.202));
#125=CARTESIAN_POINT('',(-477.338,129.458,-21.362));
#126=CARTESIAN_POINT('',(-535.095,-78.512,-96.996));
#127=CARTESIAN_POINT('',(-574.666,-254.319,-206.482));
#128=CARTESIAN_POINT('',(-600.952,-435.454,-311.512));
#129=CARTESIAN_POINT('',(-598.378,-529.87,-379.663));
#130=CARTESIAN_POINT('',(-152.146,987.779,367.276));
#131=CARTESIAN_POINT('',(-255.784,874.087,282.914));
#132=CARTESIAN_POINT('',(-384.15,643.769,175.76));
#133=CARTESIAN_POINT('',(-387.46,382.36,32.224));
#134=CARTESIAN_POINT('',(-478.475,154.189,-82.231));
#135=CARTESIAN_POINT('',(-537.333,-47.155,-165.453));
#136=CARTESIAN_POINT('',(-572.284,-231.582,-276.388));
#137=CARTESIAN_POINT('',(-590.086,-409.651,-379.102));
#138=CARTESIAN_POINT('',(-576.947,-533.638,-448.952));
#139=CARTESIAN_POINT('',(-84.797,1033.771,329.938));
#140=CARTESIAN_POINT('',(-200.963,918.045,230.888));
#141=CARTESIAN_POINT('',(-361.155,658.983,102.481));
#142=CARTESIAN_POINT('',(-403.665,395.782,-48.524));
#143=CARTESIAN_POINT('',(-469.748,167.059,-177.654));
#144=CARTESIAN_POINT('',(-508.053,-25.421,-269.267));
#145=CARTESIAN_POINT('',(-531.007,-213.752,-370.57));
#146=CARTESIAN_POINT('',(-546.556,-399.212,-475.071));
#147=CARTESIAN_POINT('',(-516.57,-533.108,-532.877));
#148=CARTESIAN_POINT('',(-27.523,991.796,282.368));
#149=CARTESIAN_POINT('',(-171.115,877.016,180.981));
#150=CARTESIAN_POINT('',(-344.01,632.211,22.119));
#151=CARTESIAN_POINT('',(-378.461,359.177,-136.592));
#152=CARTESIAN_POINT('',(-444.456,165.259,-271.444));
#153=CARTESIAN_POINT('',(-458.056,-19.55,-359.052));
#154=CARTESIAN_POINT('',(-469.361,-198.406,-444.542));
#155=CARTESIAN_POINT('',(-466.133,-399.021,-535.567));
#156=CARTESIAN_POINT('',(-415.83,-554.611,-576.107));
#157=CARTESIAN_POINT('',(-95.182,834.264,187.14));
#158=CARTESIAN_POINT('',(-196.747,738.908,92.37));
#159=CARTESIAN_POINT('',(-308.009,535.911,-88.691));
#160=CARTESIAN_POINT('',(-342.337,312.559,-248.635));
#161=CARTESIAN_POINT('',(-367.185,122.235,-339.022));
#162=CARTESIAN_POINT('',(-368.515,-38.275,-419.591));
#163=CARTESIAN_POINT('',(-379.201,-194.785,-497.886));
#164=CARTESIAN_POINT('',(-383.28,-355.142,-572.902));
#165=CARTESIAN_POINT('',(-342.92,-455.468,-599.446));
#166=CARTESIAN_POINT('',(-166.588,626.915,21.388));
#167=CARTESIAN_POINT('',(-208.683,576.277,-63.946));
#168=CARTESIAN_POINT('',(-253.689,402.749,-204.017));
#169=CARTESIAN_POINT('',(-268.625,222.088,-317.008));
#170=CARTESIAN_POINT('',(-265.759,69.425,-395.303));
#171=CARTESIAN_POINT('',(-268.418,-62.843,-485.411));
#172=CARTESIAN_POINT('',(-277.103,-206.807,-548.446));
#173=CARTESIAN_POINT('',(-250.187,-340.308,-617.151));
#174=CARTESIAN_POINT('',(-220.877,-417.498,-634.036));
#175=CARTESIAN_POINT('',(-117.461,499.1,-57.438));
#176=CARTESIAN_POINT('',(-171.044,437.191,-142.946));
#177=CARTESIAN_POINT('',(-174.537,285.35,-278.578));
#178=CARTESIAN_POINT('',(-158.845,134.867,-388.155));
#179=CARTESIAN_POINT('',(-148.104,12.278,-497.752));
#180=CARTESIAN_POINT('',(-156.944,-110.291,-552.737));
#181=CARTESIAN_POINT('',(-144.096,-237.356,-629.537));
#182=CARTESIAN_POINT('',(-106.478,-369.582,-690.389));
#183=CARTESIAN_POINT('',(-82.869,-474.544,-691.901));
#184=CARTESIAN_POINT('',(-97.352,378.193,-111.039));
#185=CARTESIAN_POINT('',(-75.699,371.474,-221.958));
#186=CARTESIAN_POINT('',(-61.872,218.381,-333.209));
#187=CARTESIAN_POINT('',(-45.393,113.696,-450.82));
#188=CARTESIAN_POINT('',(-19.215,-20.36,-536.402));
#189=CARTESIAN_POINT('',(-31.804,-156.648,-605.431));
#190=CARTESIAN_POINT('',(0.226,-276.42,-688.945));
#191=CARTESIAN_POINT('',(23.021,-408.689,-742.269));
#192=CARTESIAN_POINT('',(41.41,-531.531,-746.372));
#193=CARTESIAN_POINT('',(-59.287,335.261,-133.244));
#194=CARTESIAN_POINT('',(-30.926,311.25,-202.738));
#195=CARTESIAN_POINT('',(8.378,241.617,-335.2));
#196=CARTESIAN_POINT('',(22.038,142.361,-450.187));
#197=CARTESIAN_POINT('',(54.716,1.063,-528.149));
#198=CARTESIAN_POINT('',(50.409,-143.932,-602.011));
#199=CARTESIAN_POINT('',(93.677,-265.774,-683.055));
#200=CARTESIAN_POINT('',(97.379,-398.154,-740.304));
#201=CARTESIAN_POINT('',(112.879,-492.274,-745.417));
#202=CARTESIAN_POINT('',(38.107,-19.654,410.396));
#203=CARTESIAN_POINT('',(38.47,-115.125,427.153));
#204=CARTESIAN_POINT('',(25.431,-266.302,430.312));
#205=CARTESIAN_POINT('',(4.309,-396.507,381.361));
#206=CARTESIAN_POINT('',(-31.948,-520.071,323.635));
#207=CARTESIAN_POINT('',(-29.103,-637.019,265.338));
#208=CARTESIAN_POINT('',(-9.701,-716.73,183.949));
#209=CARTESIAN_POINT('',(106.57,-762.46,113.948));
#210=CARTESIAN_POINT('',(127.105,-778.631,49.676));
#211=CARTESIAN_POINT('',(-1.109,68.082,459.459));
#212=CARTESIAN_POINT('',(-48.892,-67.633,444.868));
#213=CARTESIAN_POINT('',(-56.564,-227.131,436.069));
#214=CARTESIAN_POINT('',(-87.276,-380.798,431.753));
#215=CARTESIAN_POINT('',(-122.107,-498.17,338.481));
#216=CARTESIAN_POINT('',(-138.433,-636.282,289.714));
#217=CARTESIAN_POINT('',(-136.316,-744.829,202.2));
#218=CARTESIAN_POINT('',(-58.98,-805.005,117.383));
#219=CARTESIAN_POINT('',(-0.221,-777.961,56.907));
#220=CARTESIAN_POINT('',(-93.341,152.821,490.768));
#221=CARTESIAN_POINT('',(-128.857,32.488,477.831));
#222=CARTESIAN_POINT('',(-174.556,-133.188,441.289));
#223=CARTESIAN_POINT('',(-208.677,-298.615,418.699));
#224=CARTESIAN_POINT('',(-247.832,-446.591,354.468));
#225=CARTESIAN_POINT('',(-281.422,-601.787,287.646));
#226=CARTESIAN_POINT('',(-288.311,-746.359,206.682));
#227=CARTESIAN_POINT('',(-224.428,-851.029,106.601));
#228=CARTESIAN_POINT('',(-166.482,-890.613,39.025));
#229=CARTESIAN_POINT('',(-166.91,292.78,507.289));
#230=CARTESIAN_POINT('',(-205.944,170.946,474.01));
#231=CARTESIAN_POINT('',(-238.708,-18.77,400.002));
#232=CARTESIAN_POINT('',(-302.226,-182.825,385.588));
#233=CARTESIAN_POINT('',(-347.622,-354.381,335.584));
#234=CARTESIAN_POINT('',(-393.059,-515.968,266.983));
#235=CARTESIAN_POINT('',(-424.281,-676.629,200.748));
#236=CARTESIAN_POINT('',(-394.786,-815.984,110.755));
#237=CARTESIAN_POINT('',(-333.381,-853.511,37.029));
#238=CARTESIAN_POINT('',(-204.638,459.68,518.709));
#239=CARTESIAN_POINT('',(-247.863,349.56,453.262));
#240=CARTESIAN_POINT('',(-280.96,134.242,359.567));
#241=CARTESIAN_POINT('',(-360.128,-61.592,324.522));
#242=CARTESIAN_POINT('',(-403.883,-235.493,268.71));
#243=CARTESIAN_POINT('',(-466.877,-397.3,214.144));
#244=CARTESIAN_POINT('',(-506.17,-562.607,141.065));
#245=CARTESIAN_POINT('',(-522.825,-711.373,68.569));
#246=CARTESIAN_POINT('',(-449.458,-784.428,-9.234));
#247=CARTESIAN_POINT('',(-224.874,601.312,492.223));
#248=CARTESIAN_POINT('',(-275.528,494.07,436.422));
#249=CARTESIAN_POINT('',(-302.743,279.567,316.6));
#250=CARTESIAN_POINT('',(-357.701,67.408,239.387));
#251=CARTESIAN_POINT('',(-436.874,-105.666,190.034));
#252=CARTESIAN_POINT('',(-503.337,-280.487,135.275));
#253=CARTESIAN_POINT('',(-541.844,-446.999,58.991));
#254=CARTESIAN_POINT('',(-571.671,-606.634,-14.305));
#255=CARTESIAN_POINT('',(-551.925,-689.157,-76.326));
#256=CARTESIAN_POINT('',(-223.551,750.521,474.465));
#257=CARTESIAN_POINT('',(-283.312,625.323,403.692));
#258=CARTESIAN_POINT('',(-334.905,408.377,281.568));
#259=CARTESIAN_POINT('',(-381.989,201.215,182.144));
#260=CARTESIAN_POINT('',(-455.449,8.623,110.483));
#261=CARTESIAN_POINT('',(-517.905,-184.255,43.286));
#262=CARTESIAN_POINT('',(-577.051,-352.377,-33.841));
#263=CARTESIAN_POINT('',(-590.521,-515.191,-124.497));
#264=CARTESIAN_POINT('',(-597.622,-597.845,-192.843));
#265=CARTESIAN_POINT('',(-196.292,874.59,429.208));
#266=CARTESIAN_POINT('',(-301.772,762.648,381.819));
#267=CARTESIAN_POINT('',(-362.528,527.68,247.884));
#268=CARTESIAN_POINT('',(-340.412,305.281,111.127));
#269=CARTESIAN_POINT('',(-482.115,93.196,37.225));
#270=CARTESIAN_POINT('',(-523.252,-112.029,-45.54));
#271=CARTESIAN_POINT('',(-568.185,-291.475,-139.449));
#272=CARTESIAN_POINT('',(-599.638,-468.047,-236.347));
#273=CARTESIAN_POINT('',(-608.526,-566.776,-317.484));
#274=CARTESIAN_POINT('',(-189.013,927.509,386.171));
#275=CARTESIAN_POINT('',(-283.693,836.153,337.99));
#276=CARTESIAN_POINT('',(-382.655,603.694,221.081));
#277=CARTESIAN_POINT('',(-358.408,358.814,78.202));
#278=CARTESIAN_POINT('',(-477.338,129.458,-21.362));
#279=CARTESIAN_POINT('',(-535.095,-78.512,-96.996));
#280=CARTESIAN_POINT('',(-574.666,-254.319,-206.482));
#281=CARTESIAN_POINT('',(-600.952,-435.454,-311.512));
#282=CARTESIAN_POINT('',(-598.378,-529.87,-379.663));
#283=CARTESIAN_POINT('',(466.791,896.095,413.578));
#284=CARTESIAN_POINT('',(454.075,959.456,390.064));
#285=CARTESIAN_POINT('',(396.327,933.341,288.046));
#286=CARTESIAN_POINT('',(310.841,907.488,216.151));
#287=CARTESIAN_POINT('',(242.089,790.907,119.271));
#288=CARTESIAN_POINT('',(175.324,637.587,-2.983));
#289=CARTESIAN_POINT('',(92.58,487.182,-75.838));
#290=CARTESIAN_POINT('',(6.848,353.499,-94.629));
#291=CARTESIAN_POINT('',(-59.287,335.261,-133.244));
#292=CARTESIAN_POINT('',(480.173,801.411,350.562));
#293=CARTESIAN_POINT('',(479.381,832.072,298.212));
#294=CARTESIAN_POINT('',(432.1,854.711,210.536));
#295=CARTESIAN_POINT('',(355.993,826.094,130.519));
#296=CARTESIAN_POINT('',(277.68,744.146,45.687));
#297=CARTESIAN_POINT('',(192.807,622.206,-63.785));
#298=CARTESIAN_POINT('',(112.821,460.222,-115.681));
#299=CARTESIAN_POINT('',(39.728,344.626,-179.835));
#300=CARTESIAN_POINT('',(-30.926,311.25,-202.738));
#301=CARTESIAN_POINT('',(485.09,636.706,263.144));
#302=CARTESIAN_POINT('',(478.557,652.776,198.544));
#303=CARTESIAN_POINT('',(449.483,678.506,113.53));
#304=CARTESIAN_POINT('',(387.051,663.558,32.528));
#305=CARTESIAN_POINT('',(311.758,606.748,-55.948));
#306=CARTESIAN_POINT('',(217.392,518.549,-135.725));
#307=CARTESIAN_POINT('',(132.573,409.676,-252.848));
#308=CARTESIAN_POINT('',(54.552,325.771,-336.289));
#309=CARTESIAN_POINT('',(8.378,241.617,-335.2));
#310=CARTESIAN_POINT('',(458.811,451.664,181.988));
#311=CARTESIAN_POINT('',(455.925,474.12,124.56));
#312=CARTESIAN_POINT('',(435.785,493.181,34.109));
#313=CARTESIAN_POINT('',(382.253,483.272,-51.953));
#314=CARTESIAN_POINT('',(293.757,429.334,-119.325));
#315=CARTESIAN_POINT('',(237.193,356.119,-238.857));
#316=CARTESIAN_POINT('',(166.899,272.257,-337.723));
#317=CARTESIAN_POINT('',(87.481,183.885,-416.227));
#318=CARTESIAN_POINT('',(22.038,142.361,-450.187));
#319=CARTESIAN_POINT('',(385.942,246.302,67.568));
#320=CARTESIAN_POINT('',(393.14,270.185,26.108));
#321=CARTESIAN_POINT('',(372.347,277.865,-44.847));
#322=CARTESIAN_POINT('',(354.921,271.477,-135.523));
#323=CARTESIAN_POINT('',(300.532,229.771,-218.079));
#324=CARTESIAN_POINT('',(267.326,184.11,-328.031));
#325=CARTESIAN_POINT('',(199.939,110.879,-416.705));
#326=CARTESIAN_POINT('',(119.926,38.633,-490.437));
#327=CARTESIAN_POINT('',(54.716,1.063,-528.149));
#328=CARTESIAN_POINT('',(443.503,38.15,-27.643));
#329=CARTESIAN_POINT('',(446.02,54.524,-78.813));
#330=CARTESIAN_POINT('',(438.308,78.4,-156.421));
#331=CARTESIAN_POINT('',(398.493,79.728,-233.332));
#332=CARTESIAN_POINT('',(356.064,64.33,-316.951));
#333=CARTESIAN_POINT('',(293.974,14.801,-400.694));
#334=CARTESIAN_POINT('',(228.039,-41.934,-503.072));
#335=CARTESIAN_POINT('',(125.076,-107.546,-580.946));
#336=CARTESIAN_POINT('',(50.409,-143.932,-602.011));
#337=CARTESIAN_POINT('',(508.627,-159.956,-74.8));
#338=CARTESIAN_POINT('',(502.719,-145.36,-131.652));
#339=CARTESIAN_POINT('',(475.546,-121.873,-219.513));
#340=CARTESIAN_POINT('',(438.3,-105.158,-303.106));
#341=CARTESIAN_POINT('',(390.974,-108.11,-391.583));
#342=CARTESIAN_POINT('',(328.33,-131.995,-481.809));
#343=CARTESIAN_POINT('',(248.28,-183.242,-570.776));
#344=CARTESIAN_POINT('',(153.767,-231.856,-646.425));
#345=CARTESIAN_POINT('',(93.677,-265.774,-683.055));
#346=CARTESIAN_POINT('',(562.13,-343.717,-184.247));
#347=CARTESIAN_POINT('',(543.041,-322.953,-226.936));
#348=CARTESIAN_POINT('',(508.258,-295.885,-299.879));
#349=CARTESIAN_POINT('',(469.013,-283.266,-382.04));
#350=CARTESIAN_POINT('',(432.402,-259.04,-466.717));
#351=CARTESIAN_POINT('',(366.088,-257.199,-570.429));
#352=CARTESIAN_POINT('',(280.325,-320.894,-653.871));
#353=CARTESIAN_POINT('',(180.885,-377.078,-719.084));
#354=CARTESIAN_POINT('',(97.379,-398.154,-740.304));
#355=CARTESIAN_POINT('',(596.307,-451.75,-250.923));
#356=CARTESIAN_POINT('',(587.814,-441.84,-310.491));
#357=CARTESIAN_POINT('',(556.136,-401.822,-379.243));
#358=CARTESIAN_POINT('',(522.965,-394.807,-462.717));
#359=CARTESIAN_POINT('',(456.405,-360.516,-519.787));
#360=CARTESIAN_POINT('',(373.694,-367.387,-593.602));
#361=CARTESIAN_POINT('',(280.289,-409.412,-656.689));
#362=CARTESIAN_POINT('',(173.812,-482.282,-705.291));
#363=CARTESIAN_POINT('',(112.879,-492.274,-745.417));
#364=CARTESIAN_POINT('',(38.107,-19.654,410.396));
#365=CARTESIAN_POINT('',(-1.109,68.082,459.459));
#366=CARTESIAN_POINT('',(-93.341,152.821,490.768));
#367=CARTESIAN_POINT('',(-166.91,292.78,507.289));
#368=CARTESIAN_POINT('',(-204.638,459.68,518.709));
#369=CARTESIAN_POINT('',(-224.874,601.312,492.223));
#370=CARTESIAN_POINT('',(-223.551,750.521,474.465));
#371=CARTESIAN_POINT('',(-196.292,874.59,429.208));
#372=CARTESIAN_POINT('',(-189.013,927.509,386.171));
#373=CARTESIAN_POINT('',(69.321,45.788,394.386));
#374=CARTESIAN_POINT('',(28.715,144.101,437.36));
#375=CARTESIAN_POINT('',(-60.789,254.257,464.393));
#376=CARTESIAN_POINT('',(-105.952,392.02,529.021));
#377=CARTESIAN_POINT('',(-131.864,556.902,569.395));
#378=CARTESIAN_POINT('',(-140.819,714.17,540.76));
#379=CARTESIAN_POINT('',(-110.092,850.268,485.183));
#380=CARTESIAN_POINT('',(-110.239,988.009,467.355));
#381=CARTESIAN_POINT('',(-152.146,987.779,367.276));
#382=CARTESIAN_POINT('',(113.976,116.489,334.896));
#383=CARTESIAN_POINT('',(22.891,175.798,331.35));
#384=CARTESIAN_POINT('',(31.977,327.668,423.34));
#385=CARTESIAN_POINT('',(-20.206,482.953,483.693));
#386=CARTESIAN_POINT('',(-18.293,648.341,531.999));
#387=CARTESIAN_POINT('',(-12.5,838.793,484.741));
#388=CARTESIAN_POINT('',(41.959,1028.071,533.556));
#389=CARTESIAN_POINT('',(-14.253,1100.695,439.782));
#390=CARTESIAN_POINT('',(-84.797,1033.771,329.938));
#391=CARTESIAN_POINT('',(189.862,239.749,302.033));
#392=CARTESIAN_POINT('',(148.171,245.766,240.233));
#393=CARTESIAN_POINT('',(-2.447,305.672,283.432));
#394=CARTESIAN_POINT('',(7.988,476.14,380.254));
#395=CARTESIAN_POINT('',(19.611,643.184,422.838));
#396=CARTESIAN_POINT('',(39.732,863.291,439.972));
#397=CARTESIAN_POINT('',(157.579,1024.288,464.238));
#398=CARTESIAN_POINT('',(74.624,1074.554,359.246));
#399=CARTESIAN_POINT('',(-27.523,991.796,282.368));
#400=CARTESIAN_POINT('',(246.383,429.727,384.282));
#401=CARTESIAN_POINT('',(211.914,459.155,356.656));
#402=CARTESIAN_POINT('',(143.39,448.132,293.362));
#403=CARTESIAN_POINT('',(24.399,306.161,169.403));
#404=CARTESIAN_POINT('',(-32.979,522.565,287.9));
#405=CARTESIAN_POINT('',(-29.456,710.125,334.8));
#406=CARTESIAN_POINT('',(14.614,850.316,338.273));
#407=CARTESIAN_POINT('',(-17.732,861.662,277.452));
#408=CARTESIAN_POINT('',(-95.182,834.264,187.14));
#409=CARTESIAN_POINT('',(310.16,651.756,444.436));
#410=CARTESIAN_POINT('',(270.548,704.662,427.208));
#411=CARTESIAN_POINT('',(212.992,694.602,368.191));
#412=CARTESIAN_POINT('',(215.943,579.095,244.846));
#413=CARTESIAN_POINT('',(144.378,406.059,101.082));
#414=CARTESIAN_POINT('',(-32.571,539.748,179.709));
#415=CARTESIAN_POINT('',(-86.773,638.019,186.323));
#416=CARTESIAN_POINT('',(-93.507,681.102,96.056));
#417=CARTESIAN_POINT('',(-166.588,626.915,21.388));
#418=CARTESIAN_POINT('',(362.174,827.182,520.512));
#419=CARTESIAN_POINT('',(317.635,902.131,562.904));
#420=CARTESIAN_POINT('',(243.366,923.415,453.72));
#421=CARTESIAN_POINT('',(223.932,828.931,318.599));
#422=CARTESIAN_POINT('',(193.979,662.636,202.451));
#423=CARTESIAN_POINT('',(97.681,520.734,84.445));
#424=CARTESIAN_POINT('',(-78.693,470.177,68.749));
#425=CARTESIAN_POINT('',(-93.029,516.888,15.221));
#426=CARTESIAN_POINT('',(-117.461,499.1,-57.438));
#427=CARTESIAN_POINT('',(463.403,871.442,490.957));
#428=CARTESIAN_POINT('',(415.813,965.977,507.274));
#429=CARTESIAN_POINT('',(337.616,992.583,399.476));
#430=CARTESIAN_POINT('',(276.025,925.087,286.664));
#431=CARTESIAN_POINT('',(221.77,789.195,181.503));
#432=CARTESIAN_POINT('',(144.179,615.146,53.026));
#433=CARTESIAN_POINT('',(56.278,462.018,-22.547));
#434=CARTESIAN_POINT('',(-36.964,405.655,-54.767));
#435=CARTESIAN_POINT('',(-97.352,378.193,-111.039));
#436=CARTESIAN_POINT('',(466.791,896.095,413.578));
#437=CARTESIAN_POINT('',(454.075,959.456,390.064));
#438=CARTESIAN_POINT('',(396.327,933.341,288.046));
#439=CARTESIAN_POINT('',(310.841,907.488,216.151));
#440=CARTESIAN_POINT('',(242.089,790.907,119.271));
#441=CARTESIAN_POINT('',(175.324,637.587,-2.983));
#442=CARTESIAN_POINT('',(92.58,487.182,-75.838));
#443=CARTESIAN_POINT('',(6.848,353.499,-94.629));
#444=CARTESIAN_POINT('',(-59.287,335.261,-133.244));
#445=CARTESIAN_POINT('',(127.105,-778.631,49.676));
#446=CARTESIAN_POINT('',(188.081,-790.839,11.46));
#447=CARTESIAN_POINT('',(264.359,-806.966,-44.598));
#448=CARTESIAN_POINT('',(344.504,-766.62,-83.092));
#449=CARTESIAN_POINT('',(433.485,-663.036,-66.901));
#450=CARTESIAN_POINT('',(506.668,-619.624,-123.184));
#451=CARTESIAN_POINT('',(574.101,-585.375,-174.754));
#452=CARTESIAN_POINT('',(607.384,-516.918,-229.477));
#453=CARTESIAN_POINT('',(596.307,-451.75,-250.923));
#454=CARTESIAN_POINT('',(-0.221,-777.961,56.907));
#455=CARTESIAN_POINT('',(53.557,-700.176,8.847));
#456=CARTESIAN_POINT('',(137.845,-763.992,-108.738));
#457=CARTESIAN_POINT('',(237.279,-737.061,-151.292));
#458=CARTESIAN_POINT('',(351.733,-671.738,-152.007));
#459=CARTESIAN_POINT('',(457.923,-682.619,-206.189));
#460=CARTESIAN_POINT('',(565.65,-683.836,-274.014));
#461=CARTESIAN_POINT('',(598.582,-562.498,-327.356));
#462=CARTESIAN_POINT('',(587.814,-441.84,-310.491));
#463=CARTESIAN_POINT('',(-166.482,-890.613,39.025));
#464=CARTESIAN_POINT('',(-108.783,-848.972,-26.075));
#465=CARTESIAN_POINT('',(-44.996,-682.306,-79.286));
#466=CARTESIAN_POINT('',(72.639,-684.056,-206.79));
#467=CARTESIAN_POINT('',(218.524,-630.937,-225.723));
#468=CARTESIAN_POINT('',(344.858,-644.167,-294.325));
#469=CARTESIAN_POINT('',(465.843,-650.457,-372.839));
#470=CARTESIAN_POINT('',(554.39,-532.984,-424.206));
#471=CARTESIAN_POINT('',(556.136,-401.822,-379.243));
#472=CARTESIAN_POINT('',(-333.381,-853.511,37.029));
#473=CARTESIAN_POINT('',(-264.05,-842.877,-44.421));
#474=CARTESIAN_POINT('',(-148.871,-776.218,-156.088));
#475=CARTESIAN_POINT('',(-62.536,-621.715,-200.172));
#476=CARTESIAN_POINT('',(74.277,-570.867,-284.894));
#477=CARTESIAN_POINT('',(225.766,-581.085,-349.398));
#478=CARTESIAN_POINT('',(363.362,-576.81,-405.347));
#479=CARTESIAN_POINT('',(501.022,-507.073,-500.488));
#480=CARTESIAN_POINT('',(522.965,-394.807,-462.717));
#481=CARTESIAN_POINT('',(-449.458,-784.428,-9.234));
#482=CARTESIAN_POINT('',(-362.104,-753.959,-59.58));
#483=CARTESIAN_POINT('',(-267.059,-724.296,-186.429));
#484=CARTESIAN_POINT('',(-172.752,-606.359,-221.194));
#485=CARTESIAN_POINT('',(-59.573,-485.717,-291.51));
#486=CARTESIAN_POINT('',(111.264,-484.294,-363.967));
#487=CARTESIAN_POINT('',(267.279,-466.55,-412.542));
#488=CARTESIAN_POINT('',(407.499,-457.291,-512.678));
#489=CARTESIAN_POINT('',(456.405,-360.516,-519.787));
#490=CARTESIAN_POINT('',(-551.925,-689.157,-76.326));
#491=CARTESIAN_POINT('',(-469.92,-707.085,-147.083));
#492=CARTESIAN_POINT('',(-377.448,-612.172,-208.456));
#493=CARTESIAN_POINT('',(-268.205,-582.286,-297.396));
#494=CARTESIAN_POINT('',(-157.285,-538.392,-363.242));
#495=CARTESIAN_POINT('',(1.062,-549.393,-438.146));
#496=CARTESIAN_POINT('',(171.607,-534.606,-467.825));
#497=CARTESIAN_POINT('',(312.088,-464.395,-555.505));
#498=CARTESIAN_POINT('',(373.694,-367.387,-593.602));
#499=CARTESIAN_POINT('',(-597.622,-597.845,-192.843));
#500=CARTESIAN_POINT('',(-537.282,-658.626,-257.767));
#501=CARTESIAN_POINT('',(-421.566,-688.888,-345.095));
#502=CARTESIAN_POINT('',(-342.453,-625.459,-407.622));
#503=CARTESIAN_POINT('',(-217.966,-604.892,-468.916));
#504=CARTESIAN_POINT('',(-108.879,-568.447,-518.097));
#505=CARTESIAN_POINT('',(55.56,-575.445,-553.855));
#506=CARTESIAN_POINT('',(220.621,-519.217,-606.208));
#507=CARTESIAN_POINT('',(280.289,-409.412,-656.689));
#508=CARTESIAN_POINT('',(-608.526,-566.776,-317.484));
#509=CARTESIAN_POINT('',(-543.177,-614.721,-396.284));
#510=CARTESIAN_POINT('',(-511.008,-670.151,-514.596));
#511=CARTESIAN_POINT('',(-397.748,-652.105,-555.248));
#512=CARTESIAN_POINT('',(-294.672,-550.794,-571.618));
#513=CARTESIAN_POINT('',(-184.779,-480.021,-587.478));
#514=CARTESIAN_POINT('',(-43.794,-523.71,-633.419));
#515=CARTESIAN_POINT('',(111.284,-583.811,-690.47));
#516=CARTESIAN_POINT('',(173.812,-482.282,-705.291));
#517=CARTESIAN_POINT('',(-598.378,-529.87,-379.663));
#518=CARTESIAN_POINT('',(-576.947,-533.638,-448.952));
#519=CARTESIAN_POINT('',(-516.57,-533.108,-532.877));
#520=CARTESIAN_POINT('',(-415.83,-554.611,-576.107));
#521=CARTESIAN_POINT('',(-342.92,-455.468,-599.446));
#522=CARTESIAN_POINT('',(-220.877,-417.498,-634.036));
#523=CARTESIAN_POINT('',(-82.869,-474.544,-691.901));
#524=CARTESIAN_POINT('',(41.41,-531.531,-746.372));
#525=CARTESIAN_POINT('',(112.879,-492.274,-745.417));
#526=CARTESIAN_POINT('',(38.107,-19.654,410.396));
#527=CARTESIAN_POINT('',(69.321,45.788,394.386));
#528=CARTESIAN_POINT('',(113.976,116.489,334.896));
#529=CARTESIAN_POINT('',(189.862,239.749,302.033));
#530=CARTESIAN_POINT('',(246.383,429.727,384.282));
#531=CARTESIAN_POINT('',(310.16,651.756,444.436));
#532=CARTESIAN_POINT('',(362.174,827.182,520.512));
#533=CARTESIAN_POINT('',(463.403,871.442,490.957));
#534=CARTESIAN_POINT('',(466.791,896.095,413.578));
#535=CARTESIAN_POINT('',(38.47,-115.125,427.153));
#536=CARTESIAN_POINT('',(96.527,-89.576,387.027));
#537=CARTESIAN_POINT('',(165.295,21.682,417.616));
#538=CARTESIAN_POINT('',(212.896,166.004,339.018));
#539=CARTESIAN_POINT('',(276.1,357.374,400.006));
#540=CARTESIAN_POINT('',(354.837,565.907,432.489));
#541=CARTESIAN_POINT('',(390.177,709.107,438.571));
#542=CARTESIAN_POINT('',(451.635,766.545,403.522));
#543=CARTESIAN_POINT('',(480.173,801.411,350.562));
#544=CARTESIAN_POINT('',(25.431,-266.302,430.312));
#545=CARTESIAN_POINT('',(117.296,-254.724,422.006));
#546=CARTESIAN_POINT('',(218.311,-166.672,397.395));
#547=CARTESIAN_POINT('',(295.683,-0.404,418.804));
#548=CARTESIAN_POINT('',(298.796,207.737,346.309));
#549=CARTESIAN_POINT('',(391.387,362.563,400.809));
#550=CARTESIAN_POINT('',(445.378,507.299,368.115));
#551=CARTESIAN_POINT('',(476.114,598.799,317.469));
#552=CARTESIAN_POINT('',(485.09,636.706,263.144));
#553=CARTESIAN_POINT('',(4.309,-396.507,381.361));
#554=CARTESIAN_POINT('',(97.121,-394.079,363.948));
#555=CARTESIAN_POINT('',(228.98,-315.193,336.818));
#556=CARTESIAN_POINT('',(307.682,-167.251,325.556));
#557=CARTESIAN_POINT('',(388.44,6.089,334.935));
#558=CARTESIAN_POINT('',(338.213,175.697,255.899));
#559=CARTESIAN_POINT('',(414.683,304.236,258.073));
#560=CARTESIAN_POINT('',(445.51,398.67,218.325));
#561=CARTESIAN_POINT('',(458.811,451.664,181.988));
#562=CARTESIAN_POINT('',(-31.948,-520.071,323.635));
#563=CARTESIAN_POINT('',(83.974,-516.048,323.434));
#564=CARTESIAN_POINT('',(237.092,-452.708,312.015));
#565=CARTESIAN_POINT('',(327.189,-328.575,253.854));
#566=CARTESIAN_POINT('',(389.685,-164.855,246.975));
#567=CARTESIAN_POINT('',(387.408,-14.112,204.069));
#568=CARTESIAN_POINT('',(450.693,112.113,169.409));
#569=CARTESIAN_POINT('',(390.08,190.862,100.596));
#570=CARTESIAN_POINT('',(385.942,246.302,67.568));
#571=CARTESIAN_POINT('',(-29.103,-637.019,265.338));
#572=CARTESIAN_POINT('',(80.332,-603.672,264.06));
#573=CARTESIAN_POINT('',(238.278,-566.882,256.903));
#574=CARTESIAN_POINT('',(358.142,-474.417,222.35));
#575=CARTESIAN_POINT('',(417.969,-337.52,172.807));
#576=CARTESIAN_POINT('',(452.855,-188.018,144.676));
#577=CARTESIAN_POINT('',(497.042,-54.177,106.398));
#578=CARTESIAN_POINT('',(445.346,7.573,18.988));
#579=CARTESIAN_POINT('',(443.503,38.15,-27.643));
#580=CARTESIAN_POINT('',(-9.701,-716.73,183.949));
#581=CARTESIAN_POINT('',(109.815,-680.849,199.94));
#582=CARTESIAN_POINT('',(264.102,-652.894,154.123));
#583=CARTESIAN_POINT('',(357.849,-592.387,126.669));
#584=CARTESIAN_POINT('',(447.113,-489.044,103.991));
#585=CARTESIAN_POINT('',(500.491,-371.438,66.091));
#586=CARTESIAN_POINT('',(518.289,-274.483,23.262));
#587=CARTESIAN_POINT('',(516.125,-190.129,-24.884));
#588=CARTESIAN_POINT('',(508.627,-159.956,-74.8));
#589=CARTESIAN_POINT('',(106.57,-762.46,113.948));
#590=CARTESIAN_POINT('',(210.646,-768.539,111.57));
#591=CARTESIAN_POINT('',(324.928,-805.039,51.586));
#592=CARTESIAN_POINT('',(391.523,-738.115,13.895));
#593=CARTESIAN_POINT('',(447.896,-604.563,13.498));
#594=CARTESIAN_POINT('',(518.172,-517.576,-41.986));
#595=CARTESIAN_POINT('',(573.207,-463.955,-89.477));
#596=CARTESIAN_POINT('',(579.393,-387.675,-140.397));
#597=CARTESIAN_POINT('',(562.13,-343.717,-184.247));
#598=CARTESIAN_POINT('',(127.105,-778.631,49.676));
#599=CARTESIAN_POINT('',(188.081,-790.839,11.46));
#600=CARTESIAN_POINT('',(264.359,-806.966,-44.598));
#601=CARTESIAN_POINT('',(344.504,-766.62,-83.092));
#602=CARTESIAN_POINT('',(433.485,-663.036,-66.901));
#603=CARTESIAN_POINT('',(506.668,-619.624,-123.184));
#604=CARTESIAN_POINT('',(574.101,-585.375,-174.754));
#605=CARTESIAN_POINT('',(607.384,-516.918,-229.477));
#606=CARTESIAN_POINT('',(596.307,-451.75,-250.923));
#607=CARTESIAN_POINT('',(-189.013,927.509,386.171));
#608=CARTESIAN_POINT('',(-59.287,335.261,-133.244));
#609=CARTESIAN_POINT('',(112.879,-492.274,-745.417));
#610=CARTESIAN_POINT('',(-598.378,-529.87,-379.663));
#611=CARTESIAN_POINT('',(38.107,-19.654,410.396));
#612=CARTESIAN_POINT('',(127.105,-778.631,49.676));
#613=CARTESIAN_POINT('',(466.791,896.095,413.578));
#614=CARTESIAN_POINT('',(596.307,-451.75,-250.923));
#615=CARTESIAN_POINT('',(-189.013,927.509,386.171));
#616=CARTESIAN_POINT('',(-152.146,987.779,367.276));
#617=CARTESIAN_POINT('',(-84.797,1033.771,329.938));
#618=CARTESIAN_POINT('',(-27.523,991.796,282.368));
#619=CARTESIAN_POINT('',(-95.182,834.264,187.14));
#620=CARTESIAN_POINT('',(-166.588,626.915,21.388));
#621=CARTESIAN_POINT('',(-117.461,499.1,-57.438));
#622=CARTESIAN_POINT('',(-97.352,378.193,-111.039));
#623=CARTESIAN_POINT('',(-59.287,335.261,-133.244));
#624=CARTESIAN_POINT('',(-59.287,335.261,-133.244));
#625=CARTESIAN_POINT('',(-30.926,311.25,-202.738));
#626=CARTESIAN_POINT('',(8.378,241.617,-335.2));
#627=CARTESIAN_POINT('',(22.038,142.361,-450.187));
#628=CARTESIAN_POINT('',(54.716,1.063,-528.149));
#629=CARTESIAN_POINT('',(50.409,-143.932,-602.011));
#630=CARTESIAN_POINT('',(93.677,-265.774,-683.055));
#631=CARTESIAN_POINT('',(97.379,-398.154,-740.304));
#632=CARTESIAN_POINT('',(112.879,-492.274,-745.417));
#633=CARTESIAN_POINT('',(112.879,-492.274,-745.417));
#634=CARTESIAN_POINT('',(41.41,-531.531,-746.372));
#635=CARTESIAN_POINT('',(-82.869,-474.544,-691.901));
#636=CARTESIAN_POINT('',(-220.877,-417.498,-634.036));
#637=CARTESIAN_POINT('',(-342.92,-455.468,-599.446));
#638=CARTESIAN_POINT('',(-415.83,-554.611,-576.107));
#639=CARTESIAN_POINT('',(-516.57,-533.108,-532.877));
#640=CARTESIAN_POINT('',(-576.947,-533.638,-448.952));
#641=CARTESIAN_POINT('',(-598.378,-529.87,-379.663));
#642=CARTESIAN_POINT('',(-598.378,-529.87,-379.663));
#643=CARTESIAN_POINT('',(-600.952,-435.454,-311.512));
#644=CARTESIAN_POINT('',(-574.666,-254.319,-206.482));
#645=CARTESIAN_POINT('',(-535.095,-78.512,-96.996));
#646=CARTESIAN_POINT('',(-477.338,129.458,-21.362));
#647=CARTESIAN_POINT('',(-358.408,358.814,78.202));
#648=CARTESIAN_POINT('',(-382.655,603.694,221.081));
#649=CARTESIAN_POINT('',(-283.693,836.153,337.99));
#650=CARTESIAN_POINT('',(-189.013,927.509,386.171));
#651=CARTESIAN_POINT('',(38.107,-19.654,410.396));
#652=CARTESIAN_POINT('',(-1.109,68.082,459.459));
#653=CARTESIAN_POINT('',(-93.341,152.821,490.768));
#654=CARTESIAN_POINT('',(-166.91,292.78,507.289));
#655=CARTESIAN_POINT('',(-204.638,459.68,518.709));
#656=CARTESIAN_POINT('',(-224.874,601.312,492.223));
#657=CARTESIAN_POINT('',(-223.551,750.521,474.465));
#658=CARTESIAN_POINT('',(-196.292,874.59,429.208));
#659=CARTESIAN_POINT('',(-189.013,927.509,386.171));
#660=CARTESIAN_POINT('',(-598.378,-529.87,-379.663));
#661=CARTESIAN_POINT('',(-608.526,-566.776,-317.484));
#662=CARTESIAN_POINT('',(-597.622,-597.845,-192.843));
#663=CARTESIAN_POINT('',(-551.925,-689.157,-76.326));
#664=CARTESIAN_POINT('',(-449.458,-784.428,-9.23399999999997));
#665=CARTESIAN_POINT('',(-333.381,-853.511,37.029));
#666=CARTESIAN_POINT('',(-166.482,-890.613,39.025));
#667=CARTESIAN_POINT('',(-0.221000000000013,-777.961,56.907));
#668=CARTESIAN_POINT('',(127.105,-778.631,49.676));
#669=CARTESIAN_POINT('',(127.105,-778.631,49.676));
#670=CARTESIAN_POINT('',(106.57,-762.46,113.948));
#671=CARTESIAN_POINT('',(-9.70100000000001,-716.73,183.949));
#672=CARTESIAN_POINT('',(-29.103,-637.019,265.338));
#673=CARTESIAN_POINT('',(-31.948,-520.071,323.635));
#674=CARTESIAN_POINT('',(4.30899999999999,-396.507,381.361));
#675=CARTESIAN_POINT('',(25.431,-266.302,430.312));
#676=CARTESIAN_POINT('',(38.47,-115.125,427.153));
#677=CARTESIAN_POINT('',(38.107,-19.654,410.396));
#678=CARTESIAN_POINT('',(466.791,896.095,413.578));
#679=CARTESIAN_POINT('',(454.075,959.456,390.064));
#680=CARTESIAN_POINT('',(396.327,933.341,288.046));
#681=CARTESIAN_POINT('',(310.841,907.488,216.151));
#682=CARTESIAN_POINT('',(242.089,790.907,119.271));
#683=CARTESIAN_POINT('',(175.324,637.587,-2.98299999999998));
#684=CARTESIAN_POINT('',(92.58,487.182,-75.838));
#685=CARTESIAN_POINT('',(6.84800000000001,353.499,-94.629));
#686=CARTESIAN_POINT('',(-59.287,335.261,-133.244));
#687=CARTESIAN_POINT('',(112.879,-492.274,-745.417));
#688=CARTESIAN_POINT('',(173.812,-482.282,-705.291));
#689=CARTESIAN_POINT('',(280.289,-409.412,-656.689));
#690=CARTESIAN_POINT('',(373.694,-367.387,-593.602));
#691=CARTESIAN_POINT('',(456.405,-360.516,-519.787));
#692=CARTESIAN_POINT('',(522.965,-394.807,-462.717));
#693=CARTESIAN_POINT('',(556.136,-401.822,-379.243));
#694=CARTESIAN_POINT('',(587.814,-441.84,-310.491));
#695=CARTESIAN_POINT('',(596.307,-451.75,-250.923));
#696=CARTESIAN_POINT('',(596.307,-451.75,-250.923));
#697=CARTESIAN_POINT('',(562.13,-343.717,-184.247));
#698=CARTESIAN_POINT('',(508.627,-159.956,-74.8));
#699=CARTESIAN_POINT('',(443.503,38.15,-27.643));
#700=CARTESIAN_POINT('',(385.942,246.302,67.568));
#701=CARTESIAN_POINT('',(458.811,451.664,181.988));
#702=CARTESIAN_POINT('',(485.09,636.706,263.144));
#703=CARTESIAN_POINT('',(480.173,801.411,350.562));
#704=CARTESIAN_POINT('',(466.791,896.095,413.578));
#705=CARTESIAN_POINT('',(38.107,-19.654,410.396));
#706=CARTESIAN_POINT('',(69.321,45.788,394.386));
#707=CARTESIAN_POINT('',(113.976,116.489,334.896));
#708=CARTESIAN_POINT('',(189.862,239.749,302.033));
#709=CARTESIAN_POINT('',(246.383,429.727,384.282));
#710=CARTESIAN_POINT('',(310.16,651.756,444.436));
#711=CARTESIAN_POINT('',(362.174,827.182,520.512));
#712=CARTESIAN_POINT('',(463.403,871.442,490.957));
#713=CARTESIAN_POINT('',(466.791,896.095,413.578));
#714=CARTESIAN_POINT('',(127.105,-778.631,49.676));
#715=CARTESIAN_POINT('',(188.081,-790.839,11.46));
#716=CARTESIAN_POINT('',(264.359,-806.966,-44.598));
#717=CARTESIAN_POINT('',(344.504,-766.62,-83.092));
#718=CARTESIAN_POINT('',(433.485,-663.036,-66.901));
#719=CARTESIAN_POINT('',(506.668,-619.624,-123.184));
#720=CARTESIAN_POINT('',(574.101,-585.375,-174.754));
#721=CARTESIAN_POINT('',(607.384,-516.918,-229.477));
#722=CARTESIAN_POINT('',(596.307,-451.75,-250.923));
#723=CARTESIAN_POINT('',(0.,0.,0.));
ENDSEC;
END-ISO-10303-21;
